<?xml version="1.0" standalone="no"?>
<!DOCTYPE svg PUBLIC "-//W3C//DTD SVG 20010904//EN"
 "http://www.w3.org/TR/2001/REC-SVG-20010904/DTD/svg10.dtd">
<svg version="1.0" xmlns="http://www.w3.org/2000/svg"
 width="800.000000pt" height="800.000000pt" viewBox="0 0 800.000000 800.000000"
 preserveAspectRatio="xMidYMid meet">
<metadata>
Created by potrace 1.14, written by Peter Selinger 2001-2017
</metadata>
<g transform="translate(0.000000,800.000000) scale(0.100000,-0.100000)"
fill="#000000" stroke="none">
<path d="M3548 7985 c-1 -1 -30 -5 -63 -9 -58 -6 -70 -8 -145 -23 -19 -4 -37
-8 -40 -8 -90 -17 -278 -93 -326 -131 -22 -18 -53 -34 -70 -37 -24 -4 -64 -13
-139 -31 -43 -11 -124 -54 -165 -89 -94 -79 -144 -134 -193 -209 -21 -32 -53
-81 -72 -110 -37 -56 -72 -148 -80 -207 -3 -20 -7 -46 -9 -59 -8 -37 -8 -101
-1 -177 9 -97 28 -128 179 -285 22 -23 192 -104 218 -105 3 0 10 -3 14 -7 4
-5 18 -8 30 -8 38 0 35 -15 -4 -30 -87 -30 -190 -88 -230 -127 -7 -7 -21 -18
-30 -25 -10 -7 -36 -37 -59 -66 -24 -30 -63 -64 -91 -80 -46 -25 -138 -98
-185 -147 -96 -101 -191 -266 -225 -390 -18 -67 -22 -190 -7 -215 3 -5 -2 -10
-11 -10 -38 0 -84 -45 -118 -115 -36 -73 -48 -107 -52 -140 -1 -11 -10 -49
-20 -85 -13 -48 -17 -108 -18 -235 0 -93 2 -182 6 -197 4 -16 3 -28 -1 -28
-10 0 -47 -91 -43 -104 2 -5 -2 -23 -8 -39 -6 -17 -13 -54 -16 -82 -3 -27 -10
-72 -15 -100 -19 -93 -12 -265 17 -420 16 -89 64 -244 94 -306 6 -12 -3 -19
-40 -32 -89 -32 -167 -144 -184 -267 -1 -8 -6 -23 -10 -33 -5 -10 -6 -50 -3
-90 6 -88 42 -200 117 -362 10 -22 31 -69 46 -105 16 -36 39 -83 51 -105 13
-22 37 -69 54 -103 23 -47 62 -95 149 -183 65 -65 122 -119 128 -119 6 0 17
-6 24 -13 26 -24 94 -63 140 -81 47 -17 48 -19 68 -84 10 -37 35 -121 55 -187
20 -66 40 -134 44 -151 5 -18 16 -47 25 -65 10 -19 31 -69 47 -111 16 -42 42
-94 56 -115 17 -26 28 -59 34 -103 4 -36 10 -76 13 -90 12 -50 21 -530 12
-590 -22 -141 -37 -205 -68 -295 -17 -50 -48 -129 -69 -178 l-38 -87 1710 0
1709 0 -30 59 c-16 33 -39 88 -51 123 -12 35 -36 95 -54 133 -18 39 -42 99
-55 135 -12 36 -26 72 -31 81 -4 8 -10 35 -14 60 -3 24 -11 76 -18 116 -25
143 -6 534 29 588 13 21 79 197 94 250 4 17 20 71 35 120 15 50 28 97 30 106
2 9 10 37 19 61 8 25 17 69 20 99 7 70 56 241 56 193 0 -5 16 -18 35 -28 44
-24 89 -13 119 27 16 22 21 45 23 103 1 69 4 77 33 107 26 27 47 60 117 192
64 119 210 424 206 429 -4 3 -1 6 5 6 7 0 12 8 12 19 0 10 7 36 16 57 9 21 18
47 21 58 8 39 11 51 13 51 1 0 3 11 5 25 2 14 6 36 9 50 11 45 8 155 -4 216
-7 32 -13 64 -14 71 -1 7 -5 16 -9 19 -4 4 -7 18 -7 31 0 12 -4 23 -9 23 -5 0
-12 13 -16 30 -8 37 -58 80 -92 80 l-25 0 5 98 c3 53 13 133 22 177 13 65 16
128 13 327 -2 137 -5 248 -8 248 -3 0 -5 19 -5 43 2 102 -30 208 -85 287 -14
19 -19 53 -24 140 -9 200 -78 403 -163 483 -18 17 -33 35 -33 39 0 4 -16 39
-35 79 -19 39 -37 80 -41 92 -4 12 -22 55 -40 95 -18 40 -34 76 -36 80 -12 43
-144 212 -197 252 -25 19 -48 37 -51 41 -3 3 -12 9 -20 12 -8 4 -40 21 -70 39
-30 17 -91 46 -135 64 -67 27 -87 41 -120 82 -22 28 -43 51 -47 51 -4 1 -28
16 -52 35 -64 49 -194 101 -263 105 -7 1 -32 19 -55 41 -37 35 -144 96 -200
113 -14 5 -10 18 26 89 61 122 72 189 52 318 -15 97 -66 199 -135 269 -35 35
-62 74 -72 103 -17 46 -96 159 -161 229 -52 55 -186 153 -264 192 -89 45 -233
74 -366 75 -53 0 -98 -1 -100 -3z m2333 -5778 c-3 -12 -11 -30 -17 -41 -10
-16 -14 -16 -32 -5 -12 8 -22 18 -22 22 0 13 27 37 34 30 3 -3 8 1 12 10 9 24
33 10 25 -16z"/>
</g>
</svg>
